<?xml version="1.0" encoding="UTF-8" standalone="no"?>
<!-- Created with Inkscape (http://www.inkscape.org/) -->

<svg
   version="1.1"
   id="svg1"
   width="1024"
   height="1024"
   viewBox="0 0 1024 1024"
   sodipodi:docname="logo.svg"
   inkscape:version="1.4.2 (f4327f4, 2025-05-13)"
   xmlns:inkscape="http://www.inkscape.org/namespaces/inkscape"
   xmlns:sodipodi="http://sodipodi.sourceforge.net/DTD/sodipodi-0.dtd"
   xmlns="http://www.w3.org/2000/svg"
   xmlns:svg="http://www.w3.org/2000/svg">
  <defs
     id="defs1" />
  <sodipodi:namedview
     id="namedview1"
     pagecolor="#ffffff"
     bordercolor="#000000"
     borderopacity="0.25"
     inkscape:showpageshadow="2"
     inkscape:pageopacity="0.0"
     inkscape:pagecheckerboard="0"
     inkscape:deskcolor="#d1d1d1"
     inkscape:zoom="0.78808594"
     inkscape:cx="512"
     inkscape:cy="512"
     inkscape:window-width="1920"
     inkscape:window-height="1009"
     inkscape:window-x="-8"
     inkscape:window-y="-8"
     inkscape:window-maximized="1"
     inkscape:current-layer="g1" />
  <g
     inkscape:groupmode="layer"
     inkscape:label="Image"
     id="g1">
    <path
       style="fill:#000000"
       d="m 337,775.62173 c -10.42875,-3.00882 -17.43685,-9.06631 -21.122,-18.25693 -2.31894,-5.78337 -2.35608,-6.45323 -2.67459,-48.24473 -0.29697,-38.96459 -0.19071,-42.32917 1.31858,-41.75 0.90287,0.34646 6.10478,0.62993 11.5598,0.62993 H 336 l 0.022,38.75 c 0.0204,36.04869 0.1558,39.04483 1.94186,42.97934 2.65433,5.84722 6.93055,8.2622 14.6383,8.26692 7.12195,0.004 11.54085,-2.37708 14.84381,-7.99966 1.96333,-3.34214 2.06731,-5.2415 2.35385,-42.9966 l 0.29978,-39.5 10.95022,0.31238 L 392,668.12477 v 39.83228 c 0,37.44766 -0.12384,40.23323 -2.06862,46.52971 -1.643,5.31939 -3.13472,7.78392 -7.25,11.97798 -7.49248,7.63589 -13.73297,9.81159 -29.18138,10.17387 -7.6814,0.18014 -13.61948,-0.18582 -16.5,-1.01688 z m 175.5,0.0399 c -18.36208,-6.08474 -27.15265,-18.59646 -29.641,-42.18835 -2.05387,-19.47265 1.45193,-38.72096 9.1529,-50.25326 6.85039,-10.25853 17.25647,-15.93748 30.9881,-16.91125 18.6125,-1.31988 33.42571,6.03342 41.30023,20.50151 5.01951,9.22248 7.10951,19.28904 7.09841,34.18971 -0.0112,15.03485 -1.58731,23.18221 -6.50806,33.64175 -3.75867,7.98942 -12.6257,16.34377 -20.606,19.41456 -7.21753,2.77729 -25.46652,3.69898 -31.78458,1.60533 z m 23.23374,-19.33958 c 9.08977,-4.31338 14.72667,-23.62508 12.41418,-42.53033 -2.40486,-19.66039 -8.51444,-27.83157 -21.02466,-28.11916 C 512.91607,685.34596 506,697.43239 506,722.58727 c 0,18.99168 4.52337,30.90642 13.02056,34.29669 3.96051,1.5802 12.82725,1.28209 16.71318,-0.5619 z m -385.06707,18.01127 c -0.70883,-0.70883 -0.95653,-105.70942 -0.25104,-106.41666 0.2286,-0.22917 14.6286,-0.29179 32,-0.13916 L 214,668.05502 v 9.39331 9.39331 L 193.75,686.67082 173.5,686.5 173.22097,699.75 172.94195,713 H 190.47097 208 v 9 9 H 190.5 173 v 22 22 h -10.83333 c -5.95834,0 -11.13334,-0.3 -11.5,-0.66667 z m 64.58937,-1.04941 c 0.27888,-0.98115 2.78027,-9.43392 5.55866,-18.78392 2.77838,-9.35 8.03409,-27.125 11.67936,-39.5 3.64527,-12.375 8.38425,-28.125 10.53106,-35 l 3.90331,-12.5 11.6348,0.18235 c 6.39914,0.10029 11.7837,0.33124 11.96567,0.51322 0.18198,0.18197 2.10977,6.17492 4.28398,13.31765 2.17421,7.14273 9.40577,30.79083 16.07012,52.55134 6.66435,21.76051 12.117,39.88775 12.117,40.28276 0,0.395 -5.0465,0.59094 -11.21444,0.43543 L 280.57112,774.5 l -2.95543,-9.77396 -2.95544,-9.77395 -15.99065,0.27395 -15.99065,0.27396 -2.67817,9.5 -2.67817,9.5 -11.28681,0.28392 c -10.42699,0.2623 -11.24818,0.14803 -10.77976,-1.5 z M 270,735.85201 c 0,-0.91137 -7.64057,-28.82483 -10.86154,-39.68073 -0.50985,-1.71839 -2.19107,3.02295 -6.4147,18.09062 C 249.57569,725.49254 247,735.20296 247,735.84062 247,736.65258 250.44607,737 258.5,737 c 7.98831,0 11.5,-0.35055 11.5,-1.14799 z M 428,731 v -44 h -11 -11 l -2.2e-4,-9.75 -2.2e-4,-9.75 34.25022,0.23234 34.25022,0.23233 0.28621,9.51767 L 475.07242,687 H 463.03621 451 v 44 44 H 439.5 428 Z m 160.99846,43.75 c -8.5e-4,-0.1375 -0.0237,-24.24465 -0.0508,-53.57144 l -0.0493,-53.32144 22.80083,0.10343 c 12.67261,0.0575 24.57021,0.57844 26.78408,1.17279 C 658.04362,674.38462 668,691.27699 668,719.21256 c 0,33.32284 -13.20526,51.82945 -39.1074,54.80738 -7.25001,0.83352 -39.88983,1.43083 -39.89414,0.73006 z m 43.31707,-21.08903 c 8.62344,-5.05367 12.65039,-15.60419 12.65698,-33.16097 0.009,-24.71416 -8.08084,-34.5 -28.52173,-34.5 H 611 v 35.6254 35.6254 l 8.34211,-0.43785 c 6.77232,-0.35545 9.21361,-0.94858 12.97342,-3.15198 z M 686,721.5 V 668 h 9.41821 c 5.18002,0 10.13002,-0.27314 11,-0.60699 1.43038,-0.54888 1.58179,4.57235 1.58179,53.5 V 775 h -11 -11 z m 44,0.0327 V 668 h 31.5 31.5 v 9.42 9.41999 L 772.75,686.67 752.5,686.5 v 13 13 h 17.25069 17.25069 l -6.9e-4,9.25 L 787,731 h -17.53498 -17.53498 l 0.11176,21.75 0.11176,21.75 -11.07678,0.28275 L 730,775.0655 Z m 80,0 V 668 h 31 31 v 9.30342 9.30343 l -19.47615,-0.32253 -19.47615,-0.32254 -0.56473,2.26911 c -0.31059,1.24801 -0.43382,7.21911 -0.27384,13.26911 l 0.29087,11 17.75,0.27307 17.75,0.27308 V 722.02307 731 H 850.08705 832.1741 l -0.0268,21.75 -0.0268,21.75 -11.06027,0.28275 L 810,775.0655 Z M 528.97542,600.47039 c -2.09976,-2.53006 0.32571,-5.99805 7.25612,-10.375 3.47135,-2.19236 7.41004,-5.4719 8.75264,-7.28787 3.76574,-5.09343 43.52457,-85.98166 45.45427,-92.47545 0.41895,-1.40984 -0.9438,-6.30454 -3.89711,-13.99748 C 584.0436,469.82834 582,463.71641 582,462.75252 582,461.13228 583.77119,461 605.46482,461 c 21.33139,0 23.5482,0.15911 24.38193,1.75 0.50442,0.9625 4.58608,11.65 9.07035,23.75 4.48427,12.1 8.5657,22.98605 9.06984,24.19122 0.50414,1.20517 5.18181,13.58017 10.39482,27.5 11.76184,31.40656 15.99353,41.52197 18.8753,45.11951 1.23834,1.5459 5.39959,4.70085 9.24723,7.011 5.74698,3.45053 7.05463,4.71444 7.32579,7.08077 0.18716,1.63337 -0.24579,3.24555 -1,3.72368 -0.73155,0.46376 -17.8817,0.85009 -38.11146,0.85851 -39.76768,0.0166 -38.73997,0.16062 -37.35938,-5.23693 0.38701,-1.51306 2.792,-3.39177 7.35785,-5.74776 5.989,-3.09034 6.81879,-3.86967 7.08943,-6.65834 0.20917,-2.15524 -3.31516,-12.63618 -11.09663,-33 -6.27173,-16.41291 -12.6365,-33.10416 -14.14394,-37.09166 -1.50744,-3.9875 -3.14388,-7.25 -3.63653,-7.25 -1.1013,0 -4.55623,6.75391 -9.20782,18 -1.93366,4.675 -8.30973,19.26304 -14.16903,32.41787 -12.96528,29.10858 -13.02333,29.59675 -4.05257,34.08213 6.47569,3.23785 7.75293,5.45805 4.93267,8.5744 -1.62883,1.79984 -3.32462,1.9256 -25.96521,1.9256 -20.51965,0 -24.41663,-0.23383 -25.49204,-1.52961 z M 262,596.50198 c -14.14483,-3.21235 -26.86737,-12.33619 -31.9752,-22.93069 -3.20271,-6.64295 -3.93185,-18.32434 -1.58485,-25.3905 6.23555,-18.77349 31.77546,-21.53318 41.31708,-4.46447 1.31859,2.35877 2.74846,7.51247 3.43894,12.39499 1.36418,9.64643 3.09818,12.08299 9.90295,13.91533 8.7484,2.3557 17.13939,-1.24602 26.52829,-11.38691 10.53363,-11.37729 22.1948,-37.22821 30.73736,-68.13973 1.36796,-4.95 8.80226,-33.975 16.52066,-64.5 7.7184,-30.525 16.75175,-65.61244 20.07411,-77.97209 3.32236,-12.35964 6.04066,-23.27214 6.04066,-24.25 0,-1.45553 -0.8613,-1.77639 -4.75,-1.76951 -6.94222,0.0123 -45.14347,2.77391 -56.58462,4.09058 -7.26392,0.83595 -10.12762,0.83878 -10.95558,0.0108 -1.75728,-1.75728 3.52072,-11.45156 9.84408,-18.08094 10.56346,-11.07468 21.11696,-14.55907 48.94612,-16.16025 9.9,-0.56961 18.95786,-1.21793 20.12858,-1.44071 1.70418,-0.3243 2.67192,-2.15192 4.85371,-9.16648 7.65148,-24.59993 18.23607,-48.98236 26.81108,-61.76142 9.74804,-14.5272 24.99494,-29.93132 39.02842,-39.43089 6.42064,-4.34627 21.61543,-11.35131 29.67821,-13.68211 5.07475,-1.46702 9.6794,-1.86891 21,-1.83289 12.76979,0.0406 15.21595,0.32585 20.5,2.39022 8.25856,3.22646 12.92032,7.1715 16.06176,13.59238 3.10392,6.34418 4.21273,15.92588 2.55272,22.05917 -3.47548,12.841 -16.60187,19.39229 -29.96314,14.95439 -7.87403,-2.61534 -11.80744,-8.04149 -13.60692,-18.77083 -0.3432,-2.04631 -1.7711,-5.08381 -3.1731,-6.75 C 501.23655,189.49241 500.09874,189 496.37127,189 484.41229,189 475.19426,200.19117 467.13034,224.5 463.45889,235.56764 448,289.14293 448,290.79929 448,291.69724 453.55529,292 470.03138,292 c 19.19236,0 22.10982,0.20439 22.64002,1.58608 0.78998,2.05863 -2.07483,12.30906 -5.10219,18.25593 -4.74463,9.32022 -8.91027,11.04495 -27.06921,11.20767 -6.05,0.0542 -12.9947,0.40271 -15.43267,0.77444 L 440.63465,324.5 435.28,344 c -20.73594,75.51387 -34.62311,121.26539 -44.29404,145.92739 -21.64119,55.18763 -55.12005,93.62651 -91.48596,105.03998 -9.21599,2.89245 -28.1155,3.66587 -37.5,1.53461 z M 501,439.94155 c 0,-1.99016 6.33254,-23.43344 7.29181,-24.69155 0.75194,-0.9862 23.41704,-1.25 107.39802,-1.25 100.92122,0 106.4161,0.0908 105.8891,1.75 -0.30572,0.9625 -2.28853,6.925 -4.40624,13.25 l -3.8504,11.5 -106.16115,0.25454 C 532.41703,440.93376 501,440.69316 501,439.94155 Z m 75,-41.83013 C 566.82654,395.14007 561.46404,390.28757 557.09016,381 c -2.37705,-5.04749 -2.58262,-6.52844 -2.49851,-18 0.0747,-10.18129 0.58202,-14.3148 2.73519,-22.28349 9.84965,-36.45261 39.48409,-66.95579 70.36698,-72.4298 8.48625,-1.50419 9.80666,-1.5036 17.47826,0.008 4.56419,0.89919 8.61462,1.31328 9.00097,0.9202 C 655.48198,267.88294 662,233.07994 662,227.42266 c 0,-6.78637 -2.2685,-11.99302 -6.08519,-13.96671 C 654.22768,212.5835 650.26146,212 646.01828,212 c -5.38789,0 -7.21939,-0.36051 -7.65962,-1.50772 -1.65773,-4.31999 8.71351,-11.50882 20.14134,-13.96098 7.8484,-1.6841 31.79341,-4.52823 38.13922,-4.53009 6.09908,-0.002 8.91187,2.64499 8.67256,8.16069 -0.10352,2.38595 -4.74458,25.4881 -10.31346,51.3381 -18.11217,84.07426 -21.82147,101.90313 -22.50315,108.16202 -0.59169,5.43267 -0.42398,6.40917 1.41685,8.25 3.71501,3.71501 8.57149,2.08839 17.77227,-5.95263 1.75137,-1.5306 4.13546,-3.08479 5.29799,-3.45377 2.31331,-0.73421 5.01772,0.93685 5.01772,3.10047 0,1.8658 -16.86945,21.26112 -22.84035,26.26024 -11.93164,9.98974 -23.85767,12.45654 -33.32262,6.89252 -6.99125,-4.10984 -10.5876,-11.22574 -11.75496,-23.25885 l -0.58207,-6 -5.82714,7.73482 c -7.48577,9.93646 -15.29081,16.762 -24.57737,21.49299 -6.67672,3.40142 -8.24937,3.79289 -16,3.98278 -4.72752,0.11583 -9.72049,-0.1538 -11.09549,-0.59917 z m 33.34941,-28.3045 c 9.30034,-4.70887 21.21021,-19.98928 26.73953,-34.30692 2.49223,-6.45341 8.4044,-27.49849 12.30083,-43.78628 0.60829,-2.54277 0.29263,-2.956 -3.61161,-4.72804 -4.84826,-2.20051 -12.19933,-2.53899 -17.91972,-0.82512 -13.76202,4.1232 -29.85867,31.67875 -35.44488,60.67741 -2.68229,13.92408 -1.26355,21.47917 4.58644,24.42375 3.93798,1.98217 7.28064,1.61789 13.34941,-1.4548 z"
       id="path1" />
  </g>
</svg>
