<?xml version="1.0" encoding="UTF-8" standalone="no"?>
<!-- Created with Inkscape (http://www.inkscape.org/) -->

<svg
   version="1.1"
   id="svg1"
   width="1024"
   height="1024"
   viewBox="0 0 1024 1024"
   sodipodi:docname="logo.svg"
   inkscape:version="1.4.2 (f4327f4, 2025-05-13)"
   xmlns:inkscape="http://www.inkscape.org/namespaces/inkscape"
   xmlns:sodipodi="http://sodipodi.sourceforge.net/DTD/sodipodi-0.dtd"
   xmlns="http://www.w3.org/2000/svg"
   xmlns:svg="http://www.w3.org/2000/svg">
  <defs
     id="defs1" />
  <sodipodi:namedview
     id="namedview1"
     pagecolor="#ffffff"
     bordercolor="#000000"
     borderopacity="0.25"
     inkscape:showpageshadow="2"
     inkscape:pageopacity="0.0"
     inkscape:pagecheckerboard="0"
     inkscape:deskcolor="#d1d1d1"
     inkscape:zoom="0.78808594"
     inkscape:cx="512"
     inkscape:cy="512"
     inkscape:window-width="1920"
     inkscape:window-height="1009"
     inkscape:window-x="-8"
     inkscape:window-y="-8"
     inkscape:window-maximized="1"
     inkscape:current-layer="g1" />
  <g
     inkscape:groupmode="layer"
     inkscape:label="Image"
     id="g1">
    <path
       style="fill:#000000"
       d="m 230.80321,789.65737 c -10.07381,-2.83369 -16.94505,-9.65969 -19.48831,-19.36001 -2.7138,-10.35077 -0.50117,-19.81922 6.23627,-26.68666 7.58583,-7.73219 18.68196,-10.55099 41.69883,-10.59293 L 269,733 v -3.85212 c 0,-8.06767 -7.72905,-14.50581 -17.52708,-14.59971 -6.98141,-0.0669 -12.55266,2.69246 -16.36963,8.10763 -2.21695,3.14521 -3.65803,4.3115 -4.87527,3.94565 -0.95041,-0.28565 -4.99052,-1.24891 -8.97802,-2.14057 -8.57425,-1.91731 -8.83022,-2.6173 -4.38957,-12.00388 4.60238,-9.72844 12.99004,-15.23736 26.80737,-17.60677 18.22849,-3.12584 37.59187,4.03622 44.78826,16.56613 3.81128,6.63596 4.4013,12.45262 4.62378,45.58364 l 0.21154,31.5 H 282.39569 271.5 l -1.03977,-4.31104 -1.03977,-4.31105 -1.88748,2.08564 c -1.03811,1.1471 -4.78814,3.51363 -8.33339,5.25896 -5.47033,2.69303 -7.75161,3.21741 -15.07276,3.46467 -5.03605,0.17009 -10.58179,-0.25856 -13.32362,-1.02981 z m 31.04981,-20.88572 c 4.86052,-2.98922 7.13881,-7.30186 7.14324,-13.52165 L 269,750 h -11.53984 c -12.93505,0 -18.06215,1.63628 -20.2631,6.46684 -1.46696,3.21963 -1.54588,8.01286 -0.17414,10.57598 3.16679,5.91721 16.50917,6.84619 24.8301,1.72883 z m 69.95019,20.89291 c -6.77987,-1.91751 -12.29756,-5.94559 -15.40306,-11.24472 -4.84471,-8.26687 -5.36756,-13.04439 -5.38453,-49.20062 L 311,695.93844 l 12.25,0.28078 12.25,0.28078 0.5,31 c 0.55422,34.36145 0.7761,35.56351 7.29855,39.54048 6.81676,4.15643 20.0183,1.5364 24.5869,-4.87961 2.12595,-2.98561 2.19361,-3.95403 2.40107,-34.36653 L 370.5,696.5 h 12 12 l 0.5,45.34694 c 0.275,24.94082 0.2382,45.76989 -0.0818,46.28684 -0.32188,0.52001 -5.23599,0.81176 -11,0.65306 -10.28382,-0.28314 -10.42182,-0.31909 -10.69816,-2.78684 -0.15398,-1.375 -0.50655,-3.53838 -0.78349,-4.80751 l -0.50353,-2.30751 -3.71652,2.92686 c -7.63654,6.01399 -14.01187,8.43794 -23.20822,8.82395 -5.14915,0.21613 -10.36262,-0.16731 -13.20508,-0.97123 z m 108.41858,-0.0719 c -6.54738,-2.13994 -11.15594,-6.22301 -14.0926,-12.48567 -2.60661,-5.5588 -2.63195,-5.84065 -2.95039,-32.81459 l -0.3212,-27.20763 -7.1788,-0.29237 L 408.5,716.5 v -10 -10 l 7.25,-0.29381 7.25,-0.29381 V 683.95619 672 l 6.5,-0.1 c 3.575,-0.055 8.8625,-0.14566 11.75,-0.20147 l 5.25,-0.10146 0.28078,12.20146 L 447.06156,696 H 459.03078 471 l 0.11029,4.25 c 0.10682,4.1159 0.0842,11.41639 -0.0465,15 C 471.00671,716.8159 469.7376,717 459,717 h -12 l 0.0239,20.75 c 0.035,30.45738 1.04411,32.94038 12.97614,31.92939 3.575,-0.30291 7.44346,-0.83912 8.59658,-1.19158 1.88198,-0.57524 2.21464,-0.053 3.25,5.10246 0.63438,3.15881 1.15342,7.41938 1.15342,9.46793 0,3.44151 -0.32307,3.8573 -4.25,5.46984 -5.7213,2.34937 -22.66299,2.98158 -28.52821,1.06459 z m 72.54016,-0.53449 c -20.94016,-6.69404 -33.33046,-26.81391 -31.43387,-51.04357 0.74995,-9.58075 3.52009,-17.55886 8.60845,-24.79257 4.89047,-6.95239 9.11992,-10.41758 17.50382,-14.34088 22.81634,-10.67706 50.25024,-1.44965 61.12826,20.56053 4.95369,10.02312 6.44553,22.0121 4.17386,33.54279 -0.89489,4.54232 -2.88771,10.79155 -4.42848,13.88716 -5.37519,10.79942 -17.52648,20.32457 -29.42865,23.06851 -6.9675,1.60629 -19.68251,1.17701 -26.12339,-0.88197 z m 22.52017,-20.41037 c 10.3165,-4.33523 15.96224,-20.31607 12.27553,-34.74716 C 544.39592,721.52449 538.20269,716 527.49018,716 c -6.22878,0 -9.71568,1.44858 -13.62602,5.66072 -4.0773,4.392 -5.99449,9.0124 -6.73229,16.22477 -1.43803,14.05733 2.81994,25.71951 10.9038,29.86451 5.04424,2.58643 12.32594,2.96548 17.24645,0.89777 z m 79.58801,20.10612 c -6.93995,-2.43407 -15.94093,-8.65323 -19.50946,-13.47993 -6.68474,-9.0416 -9.3329,-18.19488 -9.3488,-32.31386 -0.0126,-11.21703 1.54258,-19.20626 5.0938,-26.16723 2.71371,-5.31932 11.21186,-14.30861 16.40262,-17.3506 6.02714,-3.53214 16.77615,-5.74123 24.1313,-4.95937 6.36349,0.67644 16.82733,4.95207 19.23285,7.85874 0.75485,0.9121 1.76735,1.65836 2.25,1.65836 C 653.6051,704 654,693.43357 654,680.51905 V 657.0381 l 2.25,-0.56222 c 1.2375,-0.30923 6.525,-0.4303 11.75,-0.26905 l 9.5,0.29317 0.25714,66.25 0.25714,66.25 H 667.00714 656 v -4.5 c 0,-2.475 -0.27254,-4.5 -0.60564,-4.5 -0.33311,0 -1.97226,1.14993 -3.64256,2.55539 -9.73337,8.1901 -24.24809,10.6295 -36.88167,6.1985 z m 30.7056,-22.05437 c 6.45899,-4.33371 8.66091,-9.29391 9.21272,-20.75323 0.2896,-6.01412 -0.0131,-11.71442 -0.79529,-14.9748 -4.52717,-18.87138 -30.10245,-21.19621 -39.23119,-3.56617 -2.93277,5.66396 -3.60966,19.16691 -1.3504,26.9385 1.82285,6.27036 5.87932,11.53647 10.82786,14.05671 5.20765,2.65219 16.14822,1.77997 21.3363,-1.70101 z M 159,753 v -36 h -7.5 -7.5 v -9.3 c 0,-5.9 0.43871,-9.73871 1.2,-10.5 0.67483,-0.67483 3.90875,-1.2 7.38938,-1.2 h 6.18937 l 0.36844,-10.75 c 0.32798,-9.56957 0.672,-11.26787 3.13292,-15.46611 5.46603,-9.32488 13.32243,-12.82714 28.50484,-12.70704 5.34328,0.0423 11.51505,0.62822 13.71505,1.30211 3.99119,1.22255 3.99971,1.23615 3.86888,6.17315 -0.0721,2.72134 -0.66455,6.90713 -1.31652,9.30175 -1.10219,4.04829 -1.37372,4.30683 -3.86887,3.68372 -1.47592,-0.36858 -5.41588,-0.91264 -8.75547,-1.20903 -5.45009,-0.48368 -6.36932,-0.28311 -8.97511,1.9583 -2.64181,2.27239 -2.93757,3.17897 -3.28562,10.0714 l -0.38248,7.57424 11.35759,0.28375 11.3576,0.28376 0.28498,10.25 0.28499,10.25 H 193.53498 182 v 36 36 H 170.5 159 Z m 539.45787,34.75 c -0.26364,-0.6875 -0.36202,-21.5 -0.21861,-46.25 l 0.26074,-45 11.72988,-0.28156 11.72989,-0.28156 0.27011,45.28156 c 0.14857,24.90486 0.10948,45.84406 -0.0869,46.53156 -0.25881,0.90622 -3.49893,1.25 -11.78138,1.25 -8.2172,0 -11.55897,-0.35092 -11.90376,-1.25 z m 52.2088,0.58333 C 750.3,787.96667 750,771.76667 750,752.33333 V 717 h -7.53498 -7.53499 l 0.28499,-10.25 0.28498,-10.25 7.13253,-0.29144 7.13254,-0.29144 0.42889,-9.20856 c 0.64608,-13.87184 4.94962,-21.52981 15.17159,-26.99718 C 769.04584,657.74292 770.98295,657.5 783,657.5 c 17.04351,0 18.50082,0.62358 17.67874,7.5647 -0.31646,2.67207 -1.12928,6.70704 -1.80626,8.96658 -1.04251,3.47961 -1.54774,4.01123 -3.30167,3.47417 -1.13895,-0.34875 -5.02025,-0.88431 -8.62511,-1.19014 -5.97802,-0.50715 -6.81112,-0.33514 -9.47512,1.95633 -2.66235,2.29006 -2.95465,3.18262 -3.30329,10.08661 l -0.38248,7.57424 11.35759,0.28375 L 796.5,696.5 v 10 10 L 785.25,716.78275 774,717.0655 V 753.03275 789 h -11.33333 c -6.23334,0 -11.63334,-0.3 -12,-0.66667 z m 68.79084,-1.64659 c -0.32802,-1.30694 -0.45265,-17.52133 -0.27695,-36.03198 l 0.31944,-33.65572 -7.28498,4.8e-4 -7.28499,4.8e-4 0.28499,-10.25 0.28498,-10.25 6.60152,-0.29231 6.60151,-0.2923 0.60744,-9.9707 c 0.94246,-15.46969 5.3977,-22.82107 16.30338,-26.9014 8.72675,-3.2651 28.68646,-2.46905 33.91279,1.35253 1.66242,1.2156 1.66235,1.65974 -0.002,9.19075 -0.96158,4.35239 -1.93479,8.22685 -2.16268,8.60992 -0.22789,0.38307 -2.25925,0.0456 -4.51413,-0.75 -5.34475,-1.88574 -12.83313,-1.84587 -15.58696,0.083 -2.58761,1.81244 -4.24807,7.1529 -4.25579,13.68777 L 843,695.9345 854.25,696.21725 865.5,696.5 v 10 10 l -11.36788,0.28385 -11.36788,0.28386 0.36788,35.71614 L 843.5,788.5 l -11.72304,0.2815 c -11.611,0.27881 -11.72874,0.25879 -12.31945,-2.09476 z M 705,684.34793 c -6.52342,-2.14913 -9.19569,-6.00029 -9.30752,-13.41361 -0.12655,-8.38849 5.76203,-13.92684 14.80752,-13.92684 6.7899,0 10.79325,2.57505 13.00434,8.36472 2.94529,7.71213 -0.0121,15.2707 -7.14012,18.24898 -3.25423,1.3597 -8.43694,1.69114 -11.36422,0.72675 z M 523.31672,609.38299 c -1.20167,-3.13152 1.2133,-6.84788 6.89164,-10.60544 3.11894,-2.0639 6.81609,-5.25412 8.2159,-7.08937 2.25281,-2.95358 43.4354,-84.62987 47.12835,-93.46834 2.42797,-5.81094 1.85794,-7.79064 -4.11348,-14.28605 -4.33673,-4.71728 -5.49244,-6.64155 -5.25,-8.74132 L 576.5,472.5 l 22.61227,-0.26842 c 17.32158,-0.20562 22.85331,0.0283 23.64249,1 0.56663,0.69763 9.64272,22.73063 20.16909,48.96221 29.17862,72.71276 29.00485,72.35796 38.25472,78.10799 4.79098,2.97824 6.64714,6.10408 5.46066,9.19598 C 686.1406,610.79719 680.99149,611 648.5,611 c -30.29802,0 -37.66129,-0.25675 -38.0722,-1.32755 -1.08923,-2.83849 1.54291,-6.62403 6.28361,-9.03706 7.2408,-3.68561 9.67396,-6.73688 9.04728,-11.34567 -0.28342,-2.08435 -4.67674,-14.13972 -9.76294,-26.78972 -5.08621,-12.65 -10.65347,-26.86879 -12.3717,-31.59731 -1.71823,-4.72852 -3.47265,-8.77852 -3.89871,-9 -0.42606,-0.22148 -5.40987,9.27231 -11.07513,21.09731 -5.66525,11.825 -12.69189,26.40365 -15.61474,32.39701 -2.92286,5.99335 -5.52439,12.76105 -5.78118,15.03932 -0.527,4.6755 0.12386,5.49076 7.63518,9.56367 3.90472,2.11728 4.66016,3.01975 4.93471,5.89514 0.19497,2.04185 -0.20363,3.72977 -1,4.23468 -0.7283,0.46176 -13.3758,0.84645 -28.10556,0.85487 -23.75345,0.0136 -26.85154,-0.16751 -27.4019,-1.6017 z M 246.24936,603.06991 C 235.01985,599.85842 225.74548,592.03409 221.27467,582 c -2.07845,-4.66477 -2.29295,-20.23163 -0.34449,-25 4.38786,-10.73821 11.93074,-16.84574 21.81943,-17.66737 11.29434,-0.93842 18.3263,5.64726 19.75966,18.50562 0.83996,7.53511 2.16028,10.7059 5.69716,13.682 3.70125,3.11439 11.28906,3.34588 17.48388,0.5334 16.20567,-7.35745 32.58958,-37.60164 45.80448,-84.55365 1.8576,-6.6 8.38241,-31.8 14.49957,-56 15.63459,-61.85181 23.69386,-93.1866 25.46267,-99 2.39499,-7.87143 2.8997,-7.50101 -10.20703,-7.49122 -19.16889,0.0143 -38.01288,1.74245 -48.77831,4.47333 -6.12947,1.55487 -10.23769,2.15189 -10.81752,1.57206 -1.80323,-1.80323 3.47584,-12.11997 9.49349,-18.55287 11.6476,-12.45132 24.38501,-16.62555 55.09627,-18.05583 l 14.74393,-0.68665 1.05272,-4.12941 c 2.63035,-10.31779 8.46313,-27.74089 12.22449,-36.51577 14.06163,-32.80437 39.14064,-61.19995 66.02343,-74.75469 33.55116,-16.91704 70.84927,-13.73811 79.68075,6.79121 2.96369,6.88928 3.09941,17.652 0.30207,23.95444 -3.62471,8.16652 -14.8728,15.90234 -23.10423,15.88982 -9.34032,-0.0142 -17.37313,-5.89102 -18.70521,-13.68476 -2.16704,-12.67892 -4.81509,-16.58196 -11.19049,-16.49397 -12.69308,0.17518 -23.84743,15.94917 -35.13352,49.68431 -9.27748,27.73123 -15.48493,48.48627 -14.72779,49.24341 0.41336,0.41337 10.74843,0.78193 22.96682,0.81903 12.21838,0.0371 22.75701,0.40229 23.41917,0.81153 1.8299,1.13093 1.45837,4.42343 -1.30947,11.60482 -3.41297,8.8552 -6.44223,13.92908 -9.80753,16.42719 -2.57088,1.9084 -4.53902,2.13834 -22.2035,2.59402 -10.9827,0.28331 -19.77012,0.93337 -20.27685,1.5 -0.49185,0.55 -2.05907,5.275 -3.4827,10.5 -2.70478,9.92703 -8.3248,30.4452 -21.22762,77.5 -22.55917,82.27015 -33.32581,108.84565 -56.18834,138.69077 -14.355,18.73924 -36.24151,36.77485 -53.0262,43.6963 -17.2464,7.11184 -36.35636,9.09175 -50.0245,5.18284 z M 495,448.05162 c 0,-3.51168 4.57889,-18.60616 6.61349,-21.80162 l 1.43262,-2.25 h 106.86995 c 88.23835,0 106.95933,0.2329 107.38259,1.3359 0.65173,1.69837 -4.7404,22.28652 -6.34253,24.21697 C 709.9217,450.79927 694.86064,451 602.37756,451 H 495 Z m 149.46851,-41.05567 c -8.82385,-2.73577 -13.12672,-12.56775 -12.1314,-27.72004 0.33512,-5.10175 0.28386,-9.26431 -0.1139,-9.25012 -0.39777,0.0142 -2.29821,2.35912 -4.22321,5.21098 C 615.10524,394.34016 595.37986,407 578.5095,407 c -25.64566,0 -36.57627,-21.29111 -28.52789,-55.56788 5.11654,-21.79055 16.50159,-41.34772 32.9818,-56.65595 17.4592,-16.21759 37.0239,-23.62626 54.84515,-20.7685 4.23029,0.67836 8.90831,1.45219 10.39559,1.71962 2.21806,0.39884 2.79903,0.0626 3.23195,-1.87052 3.74051,-16.70253 9.62098,-44.30631 10.15435,-47.666 1.39741,-8.80234 -4.33721,-12.61692 -18.08745,-12.0315 -7.89743,0.33624 -8.00681,0.30775 -8.29146,-2.15927 -0.15866,-1.375 0.33575,-4.3 1.09868,-6.5 1.77599,-5.1213 4.9855,-6.37752 25.18978,-9.8594 24.88174,-4.28796 36.81766,-5.31491 41.79103,-3.59563 6.45344,2.23094 7.21901,-3.89929 -7.92452,63.45503 -4.08073,18.15 -9.67479,42.9 -12.43125,55 -12.51686,54.94522 -13.1222,57.99449 -12.23217,61.61632 0.96257,3.91696 2.31919,4.88368 6.85341,4.88368 3.67335,0 5.39391,-0.81419 11.62268,-5.5 4.02108,-3.025 7.82116,-5.5 8.44462,-5.5 1.68683,0 3.69216,5.60499 2.9967,8.37593 -0.74732,2.97753 -17.63487,19.11161 -25.39686,24.26372 -10.99702,7.29941 -23.34388,10.6541 -30.75513,8.3563 z M 602.55584,379.41222 C 614.36285,374.47894 630.48058,351.66485 638.17113,329 641.47741,319.25604 646,301.15669 646,297.66895 c 0,-3.96408 -3.37955,-6.03466 -10.60006,-6.49442 -14.12386,-0.89934 -25.97073,8.17893 -35.6418,27.31238 -8.91487,17.63733 -15.40954,44.87269 -12.88278,54.02385 2.19979,7.96699 7.52297,10.30989 15.68048,6.90146 z"
       id="path1" />
  </g>
</svg>
